<?xml version="1.0" encoding="utf-8"?>
<!-- Generator: Adobe Illustrator 21.0.2, SVG Export Plug-In . SVG Version: 6.00 Build 0)  -->
<svg version="1.1" id="Layer_1" xmlns="http://www.w3.org/2000/svg" xmlns:xlink="http://www.w3.org/1999/xlink" x="0px" y="0px"
	 viewBox="0 0 432 432" style="enable-background:new 0 0 432 432;" xml:space="preserve">
<style type="text/css">
	.st0{fill:#F37021;}
	.st1{fill:url(#path0_fill_2_);}
	.st2{fill:#FF7F18;}
</style>
<title></title>
<desc></desc>
<g id="Page-1">
	<g id="Social_icons" transform="translate(-422.000000, -654.000000)">
		<g id="Adobe_Illustrator" transform="translate(422.000000, 654.000000)">
			<path id="path0_fill" class="st0" d="M36,216c0-99.4,80.6-180,180-180s180,80.6,180,180s-80.6,180-180,180S36,315.4,36,216z"/>
			
				<radialGradient id="path0_fill_2_" cx="3.3365" cy="429.0569" r="3.9118" gradientTransform="matrix(54 0 0 -54 3 23331)" gradientUnits="userSpaceOnUse">
				<stop  offset="0" style="stop-color:#1C0A00;stop-opacity:0.85"/>
				<stop  offset="0.767" style="stop-color:#1C0A00"/>
			</radialGradient>
			<path id="path0_fill_1_" class="st1" d="M54,216c0-89.5,72.5-162,162-162s162,72.5,162,162s-72.5,162-162,162S54,305.5,54,216z"
				/>
			<path id="Shape" class="st2" d="M156.2,250.5L145,292.9c-0.2,1.2-0.7,1.4-2.1,1.4h-20.7c-1.4,0-1.6-0.5-1.4-2.1l40.1-140.4
				c0.7-2.6,1.2-4.8,1.4-11.8c0-0.9,0.5-1.4,1.2-1.4H193c0.9,0,1.4,0.2,1.6,1.4l45,152.4c0.2,1.2,0,1.9-1.2,1.9h-23.3
				c-1.2,0-1.9-0.3-2.1-1.2l-11.7-42.6H156.2L156.2,250.5z M195.6,227.6c-4-15.6-13.3-49.8-16.8-66.4h-0.2
				c-3,16.5-10.5,44.5-16.3,66.4H195.6z M259.1,149.1c0-9.1,6.3-14.4,14.4-14.4c8.6,0,14.4,5.8,14.4,14.4c0,9.3-6.1,14.4-14.7,14.4
				C264.9,163.5,259.1,158.4,259.1,149.1L259.1,149.1z M260.7,181.2c0-1.2,0.5-1.6,1.6-1.6h22.2c1.2,0,1.6,0.5,1.6,1.6v111.5
				c0,1.2-0.2,1.6-1.6,1.6h-21.9c-1.4,0-1.9-0.7-1.9-1.9V181.2z"/>
		</g>
	</g>
</g>
</svg>
