<?xml version="1.0" encoding="utf-8"?>
<!-- Generator: Adobe Illustrator 21.0.2, SVG Export Plug-In . SVG Version: 6.00 Build 0)  -->
<svg version="1.1" id="Layer_1" xmlns="http://www.w3.org/2000/svg" xmlns:xlink="http://www.w3.org/1999/xlink" x="0px" y="0px"
	 viewBox="0 0 432 432" style="enable-background:new 0 0 432 432;" xml:space="preserve">
<style type="text/css">
	.st0{fill:#010101;}
</style>
<title>github</title>
<path class="st0" d="M72.4,199.2c-0.6,0,6.9,16,7.1,16c16.5,29.5,48.4,47.8,102.1,52.9c-7.7,5.7-16.9,16.6-18.1,29.1
	c-9.6,6.1-29,8.2-44.1,3.5c-21.1-6.5-29.3-47.6-60.8-41.8c-6.8,1.2-5.5,5.7,0.4,9.5c11.7,6.9,20.7,17.5,25.7,30.1
	c5.4,12.5,16.7,34.9,52.4,34.9c8.1,0,16.1-0.5,24.1-1.7c0,0,0.3,32,0.3,44.4c0,14.3-19.7,18.4-19.7,25.4c0,2.7,6.5,3,11.7,3
	c10.3,0,31.9-8.5,31.9-23.4c0-11.8,0.2-51.7,0.2-58.6c0-15.2,8.3-20,8.3-20s1,81.3-2,92.2c-3.5,12.8-9.9,11-9.9,16.7
	c0,8.5,25.9,2.1,34.5-16.6c6.6-14.5,3.7-94.3,3.7-94.3l7.1-0.1c0,0,0.4,36.5,0.2,53.2c-0.3,17.3-1.4,39.1,9,49.4
	c6.9,6.8,29.1,18.7,29.1,7.8c0-6.3-12.2-11.5-12.2-28.6v-78.8c9.8,0,8.3,25.9,8.3,25.9l0.7,48.1c0,0-2.1,17.6,19.3,24.8
	c7.6,2.6,23.7,3.3,24.5-1.1c0.8-4.4-19.5-10.9-19.7-24.4c-0.1-8.3,0.4-13.1,0.4-49s-4.9-49.2-22-59.8c52.7-5.3,85.5-18.2,101.4-52.6
	c1.2,0,6.5-16.1,5.9-16.1c3.9-15.2,5.8-30.8,5.9-46.5c0-49.3-24.1-66.7-28.7-74.9c6.8-37.3-1.2-54.3-4.8-60.1
	c-13.7-4.8-47.3,12.2-65.8,24.2c-30-8.6-93.5-7.8-117.3,2.2c-43.9-30.9-67.2-26.2-67.2-26.2s-15,26.5-3.9,65.2
	C75.8,101.2,65,114,65,148C65,167.2,67.2,184.2,72.4,199.2z"/>
</svg>
