<?xml version="1.0" encoding="utf-8"?>
<!-- Generator: Adobe Illustrator 21.0.2, SVG Export Plug-In . SVG Version: 6.00 Build 0)  -->
<svg version="1.1" id="Layer_1" xmlns="http://www.w3.org/2000/svg" xmlns:xlink="http://www.w3.org/1999/xlink" x="0px" y="0px"
	 viewBox="0 0 432 360" style="enable-background:new 0 0 432 360;" xml:space="preserve">
<title>jslogo</title>
<g>
	<path d="M360,353.8c-11.6,4.1-23.7,6.2-36,6.2h36h72v-72v-36c0,12.3-2.1,24.4-6.1,36C414.9,318.8,390.8,342.9,360,353.8z"/>
	<path d="M360,0h-36c12.3,0,24.4,2.1,36,6.2c30.8,10.9,54.9,35.1,65.9,65.8c4.1,11.6,6.2,23.7,6.1,36V72V0H360z"/>
	<path d="M360,144v-36c0-19.9-16.1-36-36-36s-36,16.1-36,36s16.1,36,36,36c12.3,0,24.4,2.1,36,6.1c17.1,6.1,32.4,16.3,44.5,29.9
		c9.4,10.5,16.7,22.7,21.4,36c4.1,11.6,6.2,23.7,6.1,36v-36v-72h-6.1H360z"/>
	<path d="M360,252c0-19.9-16.1-36-36-36c-12.3,0-24.4-2.1-36-6.2c-17.1-6.1-32.4-16.3-44.5-29.8c-9.4-10.5-16.7-22.7-21.3-36
		c-4.1-11.6-6.2-23.7-6.1-36c0,0,0,0,0,0V72V0h-72v6.2V72v72v6.1v59.7v6.2v36c0,19.9-16.1,36-36,36s-36-16.1-36-36v-36H6.1H0v36
		c0,12.2,2,24.4,6.2,36c10.9,30.8,35.1,54.9,65.8,65.8c23.3,8.2,48.7,8.2,72,0c30.8-10.9,54.9-35.1,65.9-65.8
		c4.1-11.7,6.2-23.8,6.1-36v-36h6.2H288v36c0,19.9,16.1,36,36,36S360,271.9,360,252z"/>
</g>
</svg>
