<svg xmlns="http://www.w3.org/2000/svg" width="6in" height="5in" viewBox="0 0 432 360">
  <title>jslogo</title>
  <g class="mono" fill="rgba(255,255,255, 1)">
    <path d="M432.25,72.25v36a107.79,107.79,0,0,0-6.15-36Z"/>
    <path d="M432.25,288.25v72h-72V354.1a108.24,108.24,0,0,0,65.85-65.85Z"/>
    <path d="M432.25,252.25v36H426.1A107.79,107.79,0,0,0,432.25,252.25Z"/>
    <path d="M432.25,216.25v36a107.79,107.79,0,0,0-6.15-36Z"/>
    <path d="M432.25,144.25v72H426.1a107.72,107.72,0,0,0-21.35-36,107.72,107.72,0,0,0,21.35-36Z"/>
    <path d="M432.25.25v72H426.1A108.24,108.24,0,0,0,360.25,6.4V.25Z"/>
    <path d="M360.25,144.25H426.1a107.72,107.72,0,0,1-21.35,36,108,108,0,0,0-44.5-29.85Z"/>
    <path d="M360.25,354.1v6.15h-36A107.79,107.79,0,0,0,360.25,354.1Z"/>
    <path d="M360.25,144.25v6.15a107.79,107.79,0,0,0-36-6.15Z"/>
    <path d="M360.25,108.25v36h-36A36,36,0,0,0,360.25,108.25Z"/>
    <path d="M360.25.25V6.4a107.79,107.79,0,0,0-36-6.15Z"/>
    <circle cx="324.25" cy="108.25" r="36"/>
    <circle cx="324.25" cy="252.25" r="36"/>
    <path d="M324.25,216.25h-36V210.1A107.79,107.79,0,0,0,324.25,216.25Z"/>
    <path d="M288.25,216.25h36a36,36,0,0,0-36,36Z"/>
    <path d="M288.25,210.1v6.15H222.4a107.72,107.72,0,0,1,21.35-36A108,108,0,0,0,288.25,210.1Z"/>
    <path d="M222.4,144.25a107.72,107.72,0,0,0,21.35,36,107.72,107.72,0,0,0-21.35,36h-6.15v-72Z"/>
    <path d="M222.4,144.25h-6.15v-36A107.79,107.79,0,0,0,222.4,144.25Z"/>
    <path d="M216.25,216.25v36a107.79,107.79,0,0,0-6.15-36Z"/>
    <path d="M216.25,144.25v72H210.1a107.72,107.72,0,0,0-21.35-36,107.72,107.72,0,0,0,21.35-36Z"/>
    <path d="M216.25,108.25v36H210.1A107.79,107.79,0,0,0,216.25,108.25Z"/>
    <path d="M216.25,72.25v36a107.79,107.79,0,0,0-6.15-36Z"/>
    <path d="M216.25.25v72H210.1A108.24,108.24,0,0,0,144.25,6.4V.25Z"/>
    <path d="M210.1,72.25a108.44,108.44,0,0,1,0,72H144.25v-72Z"/>
    <path d="M210.1,216.25a108.44,108.44,0,0,1,0,72H144.25v-72Z"/>
    <path d="M210.1,72.25H144.25V6.4A108.24,108.24,0,0,1,210.1,72.25Z"/>
    <path d="M144.25,144.25H210.1a107.72,107.72,0,0,1-21.35,36,108,108,0,0,0-44.5-29.85Z"/>
    <path d="M210.1,216.25H144.25V210.1a108,108,0,0,0,44.5-29.85A107.72,107.72,0,0,1,210.1,216.25Z"/>
    <path d="M144.25,288.25H210.1a108.24,108.24,0,0,1-65.85,65.85Z"/>
    <path d="M144.25,150.4a108,108,0,0,1,44.5,29.85,108,108,0,0,1-44.5,29.85Z"/>
    <path d="M144.25,288.25V354.1a108.44,108.44,0,0,1-72,0V288.25h72Z"/>
    <path d="M144.25,252.25v36h-36A36,36,0,0,0,144.25,252.25Z"/>
    <path d="M108.25,288.25h-36v-36A36,36,0,0,0,108.25,288.25Z"/>
    <path d="M72.25,288.25V354.1A108.24,108.24,0,0,1,6.4,288.25Z"/>
    <path d="M72.25,252.25v36H6.4a108.44,108.44,0,0,1,0-72H72.25Z"/>
    <path d="M.25,216.25H6.4a107.79,107.79,0,0,0-6.15,36Z"/>
  </g>
</svg>
