<?xml version="1.0" encoding="utf-8"?>
<!-- Generator: Adobe Illustrator 21.0.2, SVG Export Plug-In . SVG Version: 6.00 Build 0)  -->
<svg version="1.1" id="Layer_1" xmlns="http://www.w3.org/2000/svg" xmlns:xlink="http://www.w3.org/1999/xlink" x="0px" y="0px"
	 viewBox="0 0 432 360" style="enable-background:new 0 0 432 360;" xml:space="preserve">
<title>jslogo</title>
<g>
	<path d="M432.2,72.2v36c0-12.3-2.1-24.4-6.1-36H432.2z"/>
	<path d="M432.2,288.2v72h-72v-6.1c30.8-10.9,54.9-35.1,65.9-65.9H432.2z"/>
	<path d="M432.2,252.2v36h-6.1C430.2,276.7,432.3,264.5,432.2,252.2z"/>
	<path d="M432.2,216.2v36c0-12.3-2.1-24.4-6.1-36H432.2z"/>
	<path d="M432.2,144.2v72h-6.1c-4.7-13.3-11.9-25.5-21.4-36c9.4-10.5,16.7-22.7,21.4-36H432.2z"/>
	<path d="M432.2,0.2v72h-6.1C415.2,41.5,391,17.3,360.2,6.4V0.2H432.2z"/>
	<path d="M360.2,144.2h65.9c-4.7,13.3-11.9,25.5-21.4,36c-12.1-13.5-27.4-23.8-44.5-29.9V144.2z"/>
	<path d="M360.2,354.1v6.1h-36C336.5,360.3,348.7,358.2,360.2,354.1z"/>
	<path d="M360.2,144.2v6.1c-11.6-4.1-23.7-6.2-36-6.1H360.2z"/>
	<path d="M360.2,108.2v36h-36C344.1,144.2,360.2,128.1,360.2,108.2z"/>
	<path d="M360.2,0.2v6.2c-11.6-4.1-23.7-6.2-36-6.2H360.2z"/>
	<circle cx="324.2" cy="108.2" r="36"/>
	<circle cx="324.2" cy="252.2" r="36"/>
	<path d="M324.2,216.2h-36v-6.1C299.8,214.2,312,216.3,324.2,216.2z"/>
	<path d="M288.2,216.2h36c-19.9,0-36,16.1-36,36V216.2z"/>
	<path d="M288.2,210.1v6.1h-65.9c4.7-13.3,11.9-25.5,21.4-36C255.8,193.8,271.1,204,288.2,210.1z"/>
	<path d="M222.4,144.2c4.7,13.3,11.9,25.5,21.4,36c-9.4,10.5-16.7,22.7-21.4,36h-6.1v-72H222.4z"/>
	<path d="M222.4,144.2h-6.1v-36C216.2,120.5,218.3,132.7,222.4,144.2z"/>
	<path d="M216.2,216.2v36c0-12.3-2.1-24.4-6.1-36H216.2z"/>
	<path d="M216.2,144.2v72h-6.1c-4.7-13.3-11.9-25.5-21.4-36c9.4-10.5,16.7-22.7,21.4-36H216.2z"/>
	<path d="M216.2,108.2v36h-6.1C214.2,132.7,216.3,120.5,216.2,108.2z"/>
	<path d="M216.2,72.2v36c0-12.3-2.1-24.4-6.1-36H216.2z"/>
	<path d="M216.2,0.2v72h-6.1C199.2,41.5,175,17.3,144.2,6.4V0.2H216.2z"/>
	<path d="M210.1,72.2c8.2,23.3,8.2,48.7,0,72h-65.9v-72H210.1z"/>
	<path d="M210.1,216.2c8.2,23.3,8.2,48.7,0,72h-65.9v-72H210.1z"/>
	<path d="M210.1,72.2h-65.9V6.4C175,17.3,199.2,41.5,210.1,72.2z"/>
	<path d="M144.2,144.2h65.9c-4.7,13.3-11.9,25.5-21.4,36c-12.1-13.5-27.4-23.8-44.5-29.9V144.2z"/>
	<path d="M210.1,216.2h-65.9v-6.1c17.1-6.1,32.4-16.3,44.5-29.9C198.2,190.7,205.4,203,210.1,216.2z"/>
	<path d="M144.2,288.2h65.9c-10.9,30.8-35.1,54.9-65.9,65.9V288.2z"/>
	<path d="M144.2,150.4c17.1,6.1,32.4,16.3,44.5,29.9c-12.1,13.5-27.4,23.8-44.5,29.9V150.4z"/>
	<path d="M144.2,288.2v65.9c-23.3,8.2-48.7,8.2-72,0v-65.9H144.2z"/>
	<path d="M144.2,252.2v36h-36C128.1,288.2,144.2,272.1,144.2,252.2L144.2,252.2z"/>
	<path d="M108.2,288.2h-36v-36C72.2,272.1,88.4,288.2,108.2,288.2L108.2,288.2z"/>
	<path d="M72.2,288.2v65.9C41.5,343.2,17.3,319,6.4,288.2H72.2z"/>
	<path d="M72.2,252.2v36H6.4c-8.2-23.3-8.2-48.7,0-72h65.8V252.2z"/>
	<path d="M0.2,216.2h6.2c-4.1,11.6-6.2,23.7-6.2,36V216.2z"/>
</g>
</svg>
