<?xml version="1.0" encoding="utf-8"?>
<!-- Generator: Adobe Illustrator 21.0.2, SVG Export Plug-In . SVG Version: 6.00 Build 0)  -->
<svg version="1.1" id="Layer_1" xmlns="http://www.w3.org/2000/svg" xmlns:xlink="http://www.w3.org/1999/xlink" x="0px" y="0px"
	 viewBox="0 0 432 432" style="enable-background:new 0 0 432 432;" xml:space="preserve">
<style type="text/css">
	.st0{fill:#010101;}
</style>
<title>linkedin</title>
<path class="st0" d="M378,370.9V251.1c0-64.2-34.3-94.1-80-94.1c-36.9,0-53.4,20.3-62.6,34.5v-29.6H166c0.9,19.6,0,209,0,209h69.5
	V254.2c0-6.2,0.4-12.5,2.3-16.9c5-12.5,16.4-25.4,35.6-25.4c25.2,0,35.2,19.2,35.2,47.3v111.8H378z M92.8,133.3
	c24.2,0,39.3-16.1,39.3-36.1c-0.4-20.5-15.1-36.1-38.8-36.1S54,76.7,54,97.2c0,20.1,15.1,36.1,38.4,36.1H92.8z M127.5,370.9v-209H58
	v209H127.5z"/>
</svg>
