<?xml version="1.0" encoding="utf-8"?>
<!-- Generator: Adobe Illustrator 21.0.2, SVG Export Plug-In . SVG Version: 6.00 Build 0)  -->
<svg version="1.1" id="Layer_1" xmlns="http://www.w3.org/2000/svg" xmlns:xlink="http://www.w3.org/1999/xlink" x="0px" y="0px"
	 viewBox="0 0 432 360" style="enable-background:new 0 0 432 360;" xml:space="preserve">
<title>jslogo</title>
<g>
	<path d="M360,353.8v6.1c0,0,0,0.1,0.1,0.1h71.9c0,0,0.1,0,0.1-0.1v-71.9c0,0,0-0.1-0.1-0.1h-6c0,0,0,0,0,0
		C414.9,318.8,390.8,342.9,360,353.8C360,353.8,360,353.8,360,353.8z"/>
	<path d="M360,0.1v6.1c0,0,0,0,0,0c30.8,10.9,54.9,35.1,65.9,65.8c0,0,0,0,0,0h6c0,0,0.1,0,0.1-0.1V0.1c0,0,0-0.1-0.1-0.1L360,0.1
		C360,0,360,0,360,0.1z"/>
	<path d="M360,143.9v-35.3c0-19.8-15.7-36.3-35.4-36.6c-20.2-0.3-36.6,15.9-36.6,36c0,19.9,16.5,35.9,36.4,36
		c12.2,0,24.1,2.1,35.6,6.1c17.1,6.1,32.4,16.3,44.5,29.9c9.4,10.5,16.7,22.7,21.4,36c0,0,0,0,0,0h6c0,0,0.1,0,0.1-0.1v-71.9
		c0,0,0-0.1-0.1-0.1h-6L360,143.9C360,144,360,144,360,143.9z"/>
	<path d="M323.6,216c-12.2,0-24.1-2.1-35.6-6.2c-17.1-6.1-32.4-16.3-44.5-29.8c-9.4-10.5-16.7-22.7-21.3-36
		c-4.1-11.6-6.2-23.7-6.1-36V72V0.1c0,0,0-0.1-0.1-0.1h-71.9c0,0-0.1,0-0.1,0.1v6.1V72v72v6.1v59.7v6.2v35.3
		c0,19.7-15.6,36.3-35.3,36.7c-20.2,0.4-36.7-15.9-36.7-36v-35.9c0,0,0-0.1-0.1-0.1H6.1h-6c0,0-0.1,0-0.1,0.1V252
		c0,12.2,2,24.4,6.2,36c10.9,30.8,35.1,54.9,65.8,65.8c23.3,8.2,48.7,8.2,72,0c30.8-10.9,54.9-35.1,65.9-65.8
		c4.1-11.7,6.2-23.8,6.1-36v-35.9c0,0,0-0.1,0.1-0.1h6.1h65.7c0,0,0.1,0,0.1,0.1v35.3c0,19.8,15.7,36.3,35.4,36.6
		c20.2,0.3,36.6-15.9,36.6-36C360,232.1,343.5,216.1,323.6,216z"/>
</g>
</svg>
