<?xml version="1.0" encoding="utf-8"?>
<!-- Generator: Adobe Illustrator 21.0.2, SVG Export Plug-In . SVG Version: 6.00 Build 0)  -->
<svg version="1.1" id="Layer_1" xmlns="http://www.w3.org/2000/svg" xmlns:xlink="http://www.w3.org/1999/xlink" x="0px" y="0px"
	 viewBox="0 0 432 432" style="enable-background:new 0 0 432 432;" xml:space="preserve">
<title>soundcloud</title>
<path d="M54,248.5c0,10.6,4.7,20.6,12.9,27.4v-54.7C58.7,227.9,54,237.9,54,248.5 M80.4,213.9V283c3.3,0.9,6.7,1.4,10.1,1.4H94
	v-71.7c-1.2-0.1-2.3-0.2-3.5-0.2C87,212.6,83.7,213,80.4,213.9 M110.4,218.4c-0.9-0.6-1.9-1.1-2.8-1.6v67.6h13.6v-90.5
	C115.6,201.1,111.9,209.5,110.4,218.4 M134.7,181.2v103.2h13.6V174.5C143.5,176.1,138.9,178.4,134.7,181.2 M161.9,171.7v112.7h13.6
	V172.2c-2.8-0.4-5.7-0.6-8.6-0.6C165.2,171.5,163.5,171.6,161.9,171.7 M196.5,179.7c-4.5-2.7-9.3-4.7-14.3-6.1v110.9h20.4v-113
	C200.4,174.1,198.4,176.8,196.5,179.7 M209.4,164.7v119.7h129.1v-0.2c27.2-1.7,39.5-18.6,39.5-39.2c0-21.7-16.4-39.4-38.6-39.4
	c-5.3,0-10.5,1.1-15.3,3.3c-4.5-38.1-39-65.5-77.1-61C233.1,149.6,220,155.4,209.4,164.7"/>
</svg>
