<?xml version="1.0" encoding="utf-8"?>
<!-- Generator: Adobe Illustrator 21.0.2, SVG Export Plug-In . SVG Version: 6.00 Build 0)  -->
<svg version="1.1" id="Layer_1" xmlns="http://www.w3.org/2000/svg" xmlns:xlink="http://www.w3.org/1999/xlink" x="0px" y="0px"
	 viewBox="0 0 432 432" style="enable-background:new 0 0 432 432;" xml:space="preserve">
<style type="text/css">
	.st0{fill:#010101;}
</style>
<title>twitter</title>
<path class="st0" d="M257,85.1c-29.3,10.7-47.7,38.1-45.7,68.2l0.7,11.6l-11.7-1.4c-42.6-5.4-79.8-23.9-111.4-54.9L73.4,93.2
	l-4,11.4c-8.4,25.3-3,52.1,14.5,70.1c9.3,9.9,7.2,11.4-8.9,5.4c-5.6-1.9-10.5-3.3-11-2.6c-1.6,1.7,4,23.2,8.4,31.7
	c6.1,11.8,18.5,23.4,32.1,30.3l11.5,5.4l-13.6,0.2c-13,0-13.6,0.2-12.2,5.2c4.7,15.4,23.2,31.7,43.8,38.8l14.5,5l-12.6,7.6
	c-19.1,11-40.7,17-62.7,17.5c-10.5,0.2-19.2,1.2-19.2,1.9c0,2.4,28.6,15.6,45.2,20.8c49.9,15.4,109.1,8.8,153.6-17.5
	c31.7-18.6,63.2-55.9,78-91.9c8-19.2,15.9-54.2,15.9-71c0-10.9,0.7-12.3,13.8-25.3c5.9-5.6,11.4-11.7,16.4-18.2
	c2.3-4.5,2.1-4.5-9.8-0.5c-19.9,7.1-22.7,6.2-12.9-4.5c7.2-7.6,15.9-21.3,15.9-25.3c0-0.7-3.5,0.5-7.4,2.6c-6.6,3.3-13.5,6-20.6,8
	l-12.7,4.1l-11.5-7.8c-6.2-4.3-12.9-7.8-19.9-10.4C286,80.9,267.8,81.3,257,85.1z"/>
</svg>
