<?xml version="1.0" encoding="utf-8"?>
<!-- Generator: Adobe Illustrator 21.0.2, SVG Export Plug-In . SVG Version: 6.00 Build 0)  -->
<svg version="1.1" id="Layer_1" xmlns="http://www.w3.org/2000/svg" xmlns:xlink="http://www.w3.org/1999/xlink" x="0px" y="0px"
	 viewBox="0 0 432 432" style="enable-background:new 0 0 432 432;" xml:space="preserve">
<title>youtube</title>
<path d="M328.1,306h-21.3l0.1-12.4c0-5.5,4.5-10,10.1-10h1.4c5.5,0,10,4.5,10.1,10L328.1,306z M248,279.4c-5.4,0-9.8,3.6-9.8,8.1
	v60.3c0,4.5,4.4,8.1,9.8,8.1c5.4,0,9.9-3.6,9.9-8.1v-60.3C257.9,283.1,253.5,279.4,248,279.4L248,279.4z M378,245.7v114.7
	c0,27.5-23.9,50-53,50H107c-29.2,0-53-22.5-53-50V245.7c0-27.5,23.8-50,53-50h218C354.2,195.7,378,218.2,378,245.7L378,245.7z
	 M121.5,372.9V252h27v-17.9l-72-0.1v17.6H99v121.1h22.5L121.5,372.9z M202.5,270.1h-22.5v64.5c0,9.3,0.6,14,0,15.6
	c-1.8,5-10.1,10.3-13.3,0.5c-0.5-1.7,0-6.9-0.1-15.7l-0.1-65h-22.5V334c0,9.8-0.2,17.1,0.1,20.4c0.6,5.9,0.4,12.7,5.8,16.6
	c10.1,7.3,29.6-1.1,34.4-11.5v13.3h18.1L202.5,270.1L202.5,270.1z M274.6,344v-53.7c0-20.5-15.3-32.7-36.1-16.2l0.1-39.9h-22.5
	L216,371.9l18.5-0.3l1.7-8.6C259.8,384.8,274.7,369.9,274.6,344L274.6,344z M345.1,336.8l-16.9,0.1c0,0.7,0,1.4,0,2.3v9.4
	c0,5.1-4.2,9.2-9.2,9.2h-3.3c-5.1,0-9.2-4.1-9.2-9.2v-24.8h38.7v-14.6c0-10.6-0.3-21.3-1.1-27.4c-2.8-19.2-29.8-22.3-43.4-12.4
	c-4.4,3.1-7.7,7.6-9.5,12.7c-1.9,5.5-2.9,13.1-2.9,22.7v32C288.2,390.1,352.9,382.6,345.1,336.8L345.1,336.8z M258.5,163
	c1.1,2.8,3,5.1,5.4,6.8c2.7,1.8,6,2.7,9.2,2.6c3.1,0.1,6.1-0.9,8.6-2.7c2.8-2.1,4.9-4.9,6.3-8.1l-0.4,8.8h25.1V63.7H293v83.1
	c-0.6,4.5-4.7,7.8-9.2,7.2c-3.8-0.5-6.8-3.4-7.2-7.2V63.7h-20.7v72c0,9.2,0.2,15.3,0.4,18.4C256.6,157.2,257.3,160.2,258.5,163
	L258.5,163z M182.4,102.6c0-10.2,0.9-18.3,2.6-24c1.5-5.5,4.8-10.3,9.2-13.8c4.4-3.5,10.1-5.3,17-5.3c5.2-0.1,10.3,1,14.9,3.4
	c3.9,2,7.3,5,9.7,8.8c2.2,3.4,3.8,7.1,4.6,11.1c1,5.8,1.4,11.6,1.3,17.5v27c0.2,7.3-0.2,14.6-1.2,21.8c-0.8,4.6-2.4,9-4.9,13
	c-2.3,3.8-5.7,6.9-9.7,8.9c-4.3,2-8.9,3-13.6,2.9c-5,0.1-9.9-0.7-14.5-2.4c-3.8-1.5-7-4.1-9.3-7.4c-2.3-3.6-3.9-7.7-4.7-12
	c-1.1-7-1.6-14-1.4-21.1L182.4,102.6L182.4,102.6z M202.1,145.1c0,6,4.5,11,10,11c5.5,0,10-4.9,10-11V88.2c0-6-4.5-11-10-11
	c-5.5,0-10,4.9-10,11V145.1L202.1,145.1z M132.6,173.8h23.7V91.9l28-70.1h-25.8l-14.9,52.1l-15.1-52.3h-25.6l29.8,70.4L132.6,173.8
	L132.6,173.8z"/>
</svg>
